<?xml version="1.0" encoding="UTF-8" standalone="no"?>
<!-- Created with Inkscape (http://www.inkscape.org/) -->

<svg
   xmlns:dc="http://purl.org/dc/elements/1.1/"
   xmlns:cc="http://creativecommons.org/ns#"
   xmlns:rdf="http://www.w3.org/1999/02/22-rdf-syntax-ns#"
   xmlns:svg="http://www.w3.org/2000/svg"
   xmlns="http://www.w3.org/2000/svg"
   xmlns:sodipodi="http://sodipodi.sourceforge.net/DTD/sodipodi-0.dtd"
   xmlns:inkscape="http://www.inkscape.org/namespaces/inkscape"
   width="600mm"
   height="220mm"
   viewBox="0 0 600 220"
   version="1.1"
   id="svg1077"
   inkscape:version="0.92.2 5c3e80d, 2017-08-06"
   sodipodi:docname="behuizing1.svg">
  <sodipodi:namedview
     id="base"
     pagecolor="#ffffff"
     bordercolor="#666666"
     borderopacity="1.0"
     inkscape:pageopacity="0.0"
     inkscape:pageshadow="2"
     inkscape:zoom="0.7"
     inkscape:cx="636.46749"
     inkscape:cy="-211.75639"
     inkscape:document-units="mm"
     inkscape:current-layer="layer1"
     showgrid="false"
     inkscape:window-width="1680"
     inkscape:window-height="1005"
     inkscape:window-x="-1"
     inkscape:window-y="0"
     inkscape:window-maximized="0"
     inkscape:snap-global="false" />
  <defs
     id="defs1071" />
  <metadata
     id="metadata1074">
    <rdf:RDF>
      <cc:Work
         rdf:about="">
        <dc:format>image/svg+xml</dc:format>
        <dc:type
           rdf:resource="http://purl.org/dc/dcmitype/StillImage" />
        <dc:title></dc:title>
      </cc:Work>
    </rdf:RDF>
  </metadata>
  <g
     transform="translate(0,-77)"
     inkscape:label="Laag 1"
     inkscape:groupmode="layer"
     id="layer1">
    <g
       id="g1405"
       transform="translate(11.339286,44.60119)">
      <path
         d="m 58.6,359.5 h 6.2615 v -3.3 h 6.269 v 3.3 h 6.259 v -3.3 h 6.269 v 3.3 h 6.259 v -3.3 h 6.269 v 3.3 h 6.259 v -3.3 h 6.269 v 3.3 h 6.259 v -3.3 h 6.269 v 3.3 h 6.259 v -3.3 h 6.269 v 3.3 h 6.259 v -3.3 h 6.269 v 3.3 h 6.259 v -3.3 h 6.269 v 3.3 h 6.259 v -3.3 h 6.269 v 3.3 h 6.259 v -3.3 h 6.269 v 3.3 h 6.259 v -3.3 h 6.269 v 3.3 h 6.259 v -3.3 h 6.269 v 3.3 H 215.2"
         style="fill:none;stroke:#000000;stroke-width:1"
         inkscape:label="part"
         id="path1307"
         inkscape:connector-curvature="0" />
      <path
         d="m 215.2,359.5 v 2.99139 h -3.3 v 6.28389 h 3.3 v 6.29389 h -3.3 v 6.28389 h 3.3 v 6.29388 h -3.3 v 6.28389 h 3.3 v 6.29389 h -3.3 v 6.28389 h 3.3 V 409.5"
         style="fill:none;stroke:#000000;stroke-width:1"
         inkscape:label="part"
         id="path1309"
         inkscape:connector-curvature="0" />
      <path
         d="m 215.2,409.5 h -6.2615 v 3.3 h -6.269 v -3.3 h -6.259 v 3.3 h -6.269 v -3.3 h -6.259 v 3.3 h -6.269 v -3.3 h -6.259 v 3.3 h -6.269 v -3.3 h -6.259 v 3.3 h -6.269 v -3.3 h -6.259 v 3.3 h -6.269 v -3.3 h -6.259 v 3.3 h -6.269 v -3.3 h -6.259 v 3.3 h -6.269 v -3.3 h -6.259 v 3.3 h -6.269 v -3.3 h -6.259 v 3.3 h -6.269 v -3.3 h -6.259 v 3.3 h -6.269 v -3.3 h -6.259 v 3.3 h -6.269 v -3.3 H 58.6"
         style="fill:none;stroke:#000000;stroke-width:1"
         inkscape:label="part"
         id="path1311"
         inkscape:connector-curvature="0" />
      <path
         d="m 58.6,409.5 v -2.99139 h 3.3 v -6.28389 h -3.3 v -6.29389 h 3.3 v -6.28389 h -3.3 v -6.29388 h 3.3 v -6.28389 h -3.3 v -6.29389 h 3.3 v -6.28389 H 58.6 V 359.5"
         style="fill:none;stroke:#000000;stroke-width:1"
         inkscape:label="part"
         id="path1313"
         inkscape:connector-curvature="0" />
    </g>
    <g
       id="g1417"
       transform="translate(-19.654762,2.2678571)">
      <path
         d="m 4.3,61.9 h 2.9863889 v -3.3 h 6.2938891 v 3.3 h 6.283889 v -3.3 h 6.293889 v 3.3 h 6.283888 v -3.3 h 6.293889 v 3.3 h 6.283889 v -3.3 h 6.293889 v 3.3 H 54.3"
         style="fill:none;stroke:#000000;stroke-width:1"
         inkscape:label="part"
         id="path1315"
         inkscape:connector-curvature="0" />
      <path
         d="m 54.3,61.9 v 2.750561 h 3.3 v 6.058061 h -3.3 v 6.048062 h 3.3 v 6.058061 h -3.3 v 6.048061 h 3.3 v 6.058061 h -3.3 v 6.048063 h 3.3 v 6.05806 h -3.3 v 6.04806 h 3.3 v 6.05806 h -3.3 v 6.04806 h 3.3 v 6.05806 h -3.3 v 6.04807 h 3.3 v 6.05806 h -3.3 v 6.04806 h 3.3 v 6.05806 h -3.3 v 6.04806 h 3.3 v 6.05806 h -3.3 v 6.04806 h 3.3 v 6.05806 h -3.3 v 6.04807 h 3.3 v 6.05806 h -3.3 v 6.04806 h 3.3 v 6.05806 h -3.3 v 6.04806 h 3.3 v 6.05806 h -3.3 v 6.04806 h 3.3 v 6.05806 h -3.3 v 6.04807 h 3.3 v 6.05806 h -3.3 v 6.04806 h 3.3 v 6.05806 h -3.3 v 6.04806 h 3.3 v 6.05806 h -3.3 v 6.04806 h 3.3 v 6.05806 h -3.3 v 6.04807 h 3.3 v 6.05806 h -3.3 v 6.04806 h 3.3 v 6.05806 h -3.3 v 6.04806 h 3.3 v 6.05806 h -3.3 v 6.04806 h 3.3 v 6.05806 h -3.3 v 6.04806 h 3.3 v 6.05807 h -3.3 v 6.04806 h 3.3 v 6.05806 H 54.3 V 351.9"
         style="fill:none;stroke:#000000;stroke-width:1"
         inkscape:label="part"
         id="path1317"
         inkscape:connector-curvature="0" />
      <path
         d="m 54.3,351.9 h -2.986389 v 3.3 h -6.293889 v -3.3 h -6.283889 v 3.3 h -6.293889 v -3.3 h -6.283888 v 3.3 h -6.293889 v -3.3 h -6.283889 v 3.3 H 7.2863889 v -3.3 H 4.3"
         style="fill:none;stroke:#000000;stroke-width:1"
         inkscape:label="part"
         id="path1319"
         inkscape:connector-curvature="0" />
      <path
         d="m 4.3,351.9 v -2.75056 H 1 v -6.05806 h 3.3 v -6.04806 H 1 v -6.05807 h 3.3 v -6.04806 H 1 v -6.05806 h 3.3 v -6.04806 H 1 v -6.05806 h 3.3 v -6.04806 H 1 v -6.05806 h 3.3 v -6.04806 H 1 v -6.05806 H 4.3 V 276.5127 H 1 v -6.05806 h 3.3 v -6.04806 H 1 v -6.05806 h 3.3 v -6.04806 H 1 v -6.05806 h 3.3 v -6.04806 H 1 v -6.05806 h 3.3 v -6.04807 H 1 v -6.05806 h 3.3 v -6.04806 H 1 v -6.05806 h 3.3 v -6.04806 H 1 v -6.05806 h 3.3 v -6.04806 H 1 v -6.05806 h 3.3 v -6.04807 H 1 v -6.05806 H 4.3 V 167.5576 H 1 v -6.05806 h 3.3 v -6.04806 H 1 v -6.05806 h 3.3 v -6.04806 H 1 v -6.05806 h 3.3 v -6.04807 H 1 v -6.05806 h 3.3 v -6.04806 H 1 v -6.05806 h 3.3 v -6.04806 H 1 v -6.05806 H 4.3 V 94.920867 H 1 V 88.862806 H 4.3 V 82.814745 H 1 V 76.756684 H 4.3 V 70.708622 H 1 V 64.650561 H 4.3 V 61.9"
         style="fill:none;stroke:#000000;stroke-width:1"
         inkscape:label="part"
         id="path1321"
         inkscape:connector-curvature="0" />
    </g>
    <g
       id="g1423">
      <path
         d="M 58.5999999046,58.5999999046 L 64.8664999008,58.5999999046 L 64.8664999008,61.899999857 L 71.1254998971,61.899999857 L 71.1254998971,58.5999999046 L 77.3944998931,58.5999999046 L 77.3944998931,61.899999857 L 83.6534998894,61.899999857 L 83.6534998894,58.5999999046 L 89.9224998855,58.5999999046 L 89.9224998855,61.899999857 L 96.1814998818,61.899999857 L 96.1814998818,58.5999999046 L 102.450499878,58.5999999046 L 102.450499878,61.899999857 L 108.709499874,61.899999857 L 108.709499874,58.5999999046 L 114.97849987,58.5999999046 L 114.97849987,61.899999857 L 121.237499867,61.899999857 L 121.237499867,58.5999999046 L 127.506499863,58.5999999046 L 127.506499863,61.899999857 L 133.765499859,61.899999857 L 133.765499859,58.5999999046 L 140.034499855,58.5999999046 L 140.034499855,61.899999857 L 146.293499851,61.899999857 L 146.293499851,58.5999999046 L 152.562499847,58.5999999046 L 152.562499847,61.899999857 L 158.821499844,61.899999857 L 158.821499844,58.5999999046 L 165.09049984,58.5999999046 L 165.09049984,61.899999857 L 171.349499836,61.899999857 L 171.349499836,58.5999999046 L 177.618499832,58.5999999046 L 177.618499832,61.899999857 L 183.877499828,61.899999857 L 183.877499828,58.5999999046 L 190.146499824,58.5999999046 L 190.146499824,61.899999857 L 196.405499821,61.899999857 L 196.405499821,58.5999999046 L 202.674499817,58.5999999046 L 202.674499817,61.899999857 L 208.933499813,61.899999857 L 208.933499813,58.5999999046 L 215.199999809,58.5999999046 "
         style="stroke:#000000;stroke-width:1;fill:none"
         inkscape:label="part"
         id="path1323" />
      <path
         d="M 215.199999809,58.5999999046 L 215.199999809,64.6555611271 L 211.899999857,64.6555611271 L 211.899999857,70.7036223498 L 215.199999809,70.7036223498 L 215.199999809,76.7616835722 L 211.899999857,76.7616835722 L 211.899999857,82.8097447949 L 215.199999809,82.8097447949 L 215.199999809,88.8678060173 L 211.899999857,88.8678060173 L 211.899999857,94.91586724 L 215.199999809,94.91586724 L 215.199999809,100.973928462 L 211.899999857,100.973928462 L 211.899999857,107.021989685 L 215.199999809,107.021989685 L 215.199999809,113.080050907 L 211.899999857,113.080050907 L 211.899999857,119.12811213 L 215.199999809,119.12811213 L 215.199999809,125.186173353 L 211.899999857,125.186173353 L 211.899999857,131.234234575 L 215.199999809,131.234234575 L 215.199999809,137.292295798 L 211.899999857,137.292295798 L 211.899999857,143.34035702 L 215.199999809,143.34035702 L 215.199999809,149.398418243 L 211.899999857,149.398418243 L 211.899999857,155.446479465 L 215.199999809,155.446479465 L 215.199999809,161.504540688 L 211.899999857,161.504540688 L 211.899999857,167.55260191 L 215.199999809,167.55260191 L 215.199999809,173.610663133 L 211.899999857,173.610663133 L 211.899999857,179.658724356 L 215.199999809,179.658724356 L 215.199999809,185.716785578 L 211.899999857,185.716785578 L 211.899999857,191.764846801 L 215.199999809,191.764846801 L 215.199999809,197.822908023 L 211.899999857,197.822908023 L 211.899999857,203.870969246 L 215.199999809,203.870969246 L 215.199999809,209.929030468 L 211.899999857,209.929030468 L 211.899999857,215.977091691 L 215.199999809,215.977091691 L 215.199999809,222.035152913 L 211.899999857,222.035152913 L 211.899999857,228.083214136 L 215.199999809,228.083214136 L 215.199999809,234.141275358 L 211.899999857,234.141275358 L 211.899999857,240.189336581 L 215.199999809,240.189336581 L 215.199999809,246.247397803 L 211.899999857,246.247397803 L 211.899999857,252.295459026 L 215.199999809,252.295459026 L 215.199999809,258.353520249 L 211.899999857,258.353520249 L 211.899999857,264.401581471 L 215.199999809,264.401581471 L 215.199999809,270.459642694 L 211.899999857,270.459642694 L 211.899999857,276.507703916 L 215.199999809,276.507703916 L 215.199999809,282.565765139 L 211.899999857,282.565765139 L 211.899999857,288.613826361 L 215.199999809,288.613826361 L 215.199999809,294.671887584 L 211.899999857,294.671887584 L 211.899999857,300.719948806 L 215.199999809,300.719948806 L 215.199999809,306.778010029 L 211.899999857,306.778010029 L 211.899999857,312.826071252 L 215.199999809,312.826071252 L 215.199999809,318.884132474 L 211.899999857,318.884132474 L 211.899999857,324.932193697 L 215.199999809,324.932193697 L 215.199999809,330.990254919 L 211.899999857,330.990254919 L 211.899999857,337.038316142 L 215.199999809,337.038316142 L 215.199999809,343.096377364 L 211.899999857,343.096377364 L 211.899999857,349.144438587 L 215.199999809,349.144438587 L 215.199999809,355.199999809 "
         style="stroke:#000000;stroke-width:1;fill:none"
         inkscape:label="part"
         id="path1325" />
      <path
         d="M 215.199999809,355.199999809 L 208.933499813,355.199999809 L 208.933499813,351.899999857 L 202.674499817,351.899999857 L 202.674499817,355.199999809 L 196.405499821,355.199999809 L 196.405499821,351.899999857 L 190.146499824,351.899999857 L 190.146499824,355.199999809 L 183.877499828,355.199999809 L 183.877499828,351.899999857 L 177.618499832,351.899999857 L 177.618499832,355.199999809 L 171.349499836,355.199999809 L 171.349499836,351.899999857 L 165.09049984,351.899999857 L 165.09049984,355.199999809 L 158.821499844,355.199999809 L 158.821499844,351.899999857 L 152.562499847,351.899999857 L 152.562499847,355.199999809 L 146.293499851,355.199999809 L 146.293499851,351.899999857 L 140.034499855,351.899999857 L 140.034499855,355.199999809 L 133.765499859,355.199999809 L 133.765499859,351.899999857 L 127.506499863,351.899999857 L 127.506499863,355.199999809 L 121.237499867,355.199999809 L 121.237499867,351.899999857 L 114.97849987,351.899999857 L 114.97849987,355.199999809 L 108.709499874,355.199999809 L 108.709499874,351.899999857 L 102.450499878,351.899999857 L 102.450499878,355.199999809 L 96.1814998818,355.199999809 L 96.1814998818,351.899999857 L 89.9224998855,351.899999857 L 89.9224998855,355.199999809 L 83.6534998894,355.199999809 L 83.6534998894,351.899999857 L 77.3944998931,351.899999857 L 77.3944998931,355.199999809 L 71.1254998971,355.199999809 L 71.1254998971,351.899999857 L 64.8664999008,351.899999857 L 64.8664999008,355.199999809 L 58.5999999046,355.199999809 "
         style="stroke:#000000;stroke-width:1;fill:none"
         inkscape:label="part"
         id="path1327" />
      <path
         d="M 58.5999999046,355.199999809 L 58.5999999046,349.144438587 L 61.899999857,349.144438587 L 61.899999857,343.096377364 L 58.5999999046,343.096377364 L 58.5999999046,337.038316142 L 61.899999857,337.038316142 L 61.899999857,330.990254919 L 58.5999999046,330.990254919 L 58.5999999046,324.932193697 L 61.899999857,324.932193697 L 61.899999857,318.884132474 L 58.5999999046,318.884132474 L 58.5999999046,312.826071252 L 61.899999857,312.826071252 L 61.899999857,306.778010029 L 58.5999999046,306.778010029 L 58.5999999046,300.719948806 L 61.899999857,300.719948806 L 61.899999857,294.671887584 L 58.5999999046,294.671887584 L 58.5999999046,288.613826361 L 61.899999857,288.613826361 L 61.899999857,282.565765139 L 58.5999999046,282.565765139 L 58.5999999046,276.507703916 L 61.899999857,276.507703916 L 61.899999857,270.459642694 L 58.5999999046,270.459642694 L 58.5999999046,264.401581471 L 61.899999857,264.401581471 L 61.899999857,258.353520249 L 58.5999999046,258.353520249 L 58.5999999046,252.295459026 L 61.899999857,252.295459026 L 61.899999857,246.247397803 L 58.5999999046,246.247397803 L 58.5999999046,240.189336581 L 61.899999857,240.189336581 L 61.899999857,234.141275358 L 58.5999999046,234.141275358 L 58.5999999046,228.083214136 L 61.899999857,228.083214136 L 61.899999857,222.035152913 L 58.5999999046,222.035152913 L 58.5999999046,215.977091691 L 61.899999857,215.977091691 L 61.899999857,209.929030468 L 58.5999999046,209.929030468 L 58.5999999046,203.870969246 L 61.899999857,203.870969246 L 61.899999857,197.822908023 L 58.5999999046,197.822908023 L 58.5999999046,191.764846801 L 61.899999857,191.764846801 L 61.899999857,185.716785578 L 58.5999999046,185.716785578 L 58.5999999046,179.658724356 L 61.899999857,179.658724356 L 61.899999857,173.610663133 L 58.5999999046,173.610663133 L 58.5999999046,167.55260191 L 61.899999857,167.55260191 L 61.899999857,161.504540688 L 58.5999999046,161.504540688 L 58.5999999046,155.446479465 L 61.899999857,155.446479465 L 61.899999857,149.398418243 L 58.5999999046,149.398418243 L 58.5999999046,143.34035702 L 61.899999857,143.34035702 L 61.899999857,137.292295798 L 58.5999999046,137.292295798 L 58.5999999046,131.234234575 L 61.899999857,131.234234575 L 61.899999857,125.186173353 L 58.5999999046,125.186173353 L 58.5999999046,119.12811213 L 61.899999857,119.12811213 L 61.899999857,113.080050907 L 58.5999999046,113.080050907 L 58.5999999046,107.021989685 L 61.899999857,107.021989685 L 61.899999857,100.973928462 L 58.5999999046,100.973928462 L 58.5999999046,94.91586724 L 61.899999857,94.91586724 L 61.899999857,88.8678060173 L 58.5999999046,88.8678060173 L 58.5999999046,82.8097447949 L 61.899999857,82.8097447949 L 61.899999857,76.7616835722 L 58.5999999046,76.7616835722 L 58.5999999046,70.7036223498 L 61.899999857,70.7036223498 L 61.899999857,64.6555611271 L 58.5999999046,64.6555611271 L 58.5999999046,58.5999999046 "
         style="stroke:#000000;stroke-width:1;fill:none"
         inkscape:label="part"
         id="path1329" />
    </g>
    <g
       id="g1411"
       transform="translate(34.017857,-1.5119048)">
      <path
         d="m 219.5,61.9 h 2.98639 v -3.3 h 6.29389 v 3.3 h 6.28389 v -3.3 h 6.29389 v 3.3 h 6.28388 v -3.3 h 6.29389 v 3.3 h 6.28389 v -3.3 h 6.29389 v 3.3 H 269.5"
         style="fill:none;stroke:#000000;stroke-width:1"
         inkscape:label="part"
         id="path1331"
         inkscape:connector-curvature="0" />
      <path
         d="m 269.5,61.9 v 2.750561 h 3.3 v 6.058061 h -3.3 v 6.048062 h 3.3 v 6.058061 h -3.3 v 6.048061 h 3.3 v 6.058061 h -3.3 v 6.048063 h 3.3 v 6.05806 h -3.3 v 6.04806 h 3.3 v 6.05806 h -3.3 v 6.04806 h 3.3 v 6.05806 h -3.3 v 6.04807 h 3.3 v 6.05806 h -3.3 v 6.04806 h 3.3 v 6.05806 h -3.3 v 6.04806 h 3.3 v 6.05806 h -3.3 v 6.04806 h 3.3 v 6.05806 h -3.3 v 6.04807 h 3.3 v 6.05806 h -3.3 v 6.04806 h 3.3 v 6.05806 h -3.3 v 6.04806 h 3.3 v 6.05806 h -3.3 v 6.04806 h 3.3 v 6.05806 h -3.3 v 6.04807 h 3.3 v 6.05806 h -3.3 v 6.04806 h 3.3 v 6.05806 h -3.3 v 6.04806 h 3.3 v 6.05806 h -3.3 v 6.04806 h 3.3 v 6.05806 h -3.3 v 6.04807 h 3.3 v 6.05806 h -3.3 v 6.04806 h 3.3 v 6.05806 h -3.3 v 6.04806 h 3.3 v 6.05806 h -3.3 v 6.04806 h 3.3 v 6.05806 h -3.3 v 6.04806 h 3.3 v 6.05807 h -3.3 v 6.04806 h 3.3 v 6.05806 h -3.3 V 351.9"
         style="fill:none;stroke:#000000;stroke-width:1"
         inkscape:label="part"
         id="path1333"
         inkscape:connector-curvature="0" />
      <path
         d="m 269.5,351.9 h -2.98639 v 3.3 h -6.29389 v -3.3 h -6.28389 v 3.3 h -6.29389 v -3.3 h -6.28388 v 3.3 h -6.29389 v -3.3 h -6.28389 v 3.3 h -6.29389 v -3.3 H 219.5"
         style="fill:none;stroke:#000000;stroke-width:1"
         inkscape:label="part"
         id="path1335"
         inkscape:connector-curvature="0" />
      <path
         d="m 219.5,351.9 v -2.75056 h -3.3 v -6.05806 h 3.3 v -6.04806 h -3.3 v -6.05807 h 3.3 v -6.04806 h -3.3 v -6.05806 h 3.3 v -6.04806 h -3.3 v -6.05806 h 3.3 v -6.04806 h -3.3 v -6.05806 h 3.3 v -6.04806 h -3.3 v -6.05806 h 3.3 v -6.04807 h -3.3 v -6.05806 h 3.3 v -6.04806 h -3.3 v -6.05806 h 3.3 v -6.04806 h -3.3 v -6.05806 h 3.3 v -6.04806 h -3.3 v -6.05806 h 3.3 v -6.04807 h -3.3 v -6.05806 h 3.3 v -6.04806 h -3.3 v -6.05806 h 3.3 v -6.04806 h -3.3 v -6.05806 h 3.3 v -6.04806 h -3.3 v -6.05806 h 3.3 v -6.04807 h -3.3 v -6.05806 h 3.3 v -6.04806 h -3.3 v -6.05806 h 3.3 v -6.04806 h -3.3 v -6.05806 h 3.3 v -6.04806 h -3.3 v -6.05806 h 3.3 v -6.04807 h -3.3 v -6.05806 h 3.3 v -6.04806 h -3.3 v -6.05806 h 3.3 v -6.04806 h -3.3 v -6.05806 h 3.3 v -6.048063 h -3.3 v -6.058061 h 3.3 v -6.048061 h -3.3 v -6.058061 h 3.3 v -6.048062 h -3.3 v -6.058061 h 3.3 V 61.9"
         style="fill:none;stroke:#000000;stroke-width:1"
         inkscape:label="part"
         id="path1337"
         inkscape:connector-curvature="0" />
    </g>
    <g
       id="g1393"
       transform="translate(144.00893,-21.544643)">
      <path
         d="m 273.8,58.6 h 6.2665 v 3.3 h 6.259 v -3.3 h 6.269 v 3.3 h 6.259 v -3.3 h 6.269 v 3.3 h 6.259 v -3.3 h 6.269 v 3.3 h 6.259 v -3.3 h 6.269 v 3.3 h 6.259 v -3.3 h 6.269 v 3.3 h 6.259 v -3.3 h 6.269 v 3.3 h 6.259 v -3.3 h 6.269 v 3.3 h 6.259 v -3.3 h 6.269 v 3.3 h 6.259 v -3.3 h 6.269 v 3.3 h 6.259 v -3.3 h 6.269 v 3.3 h 6.259 v -3.3 h 6.269 v 3.3 h 6.259 V 58.6 H 430.4"
         style="fill:none;stroke:#000000;stroke-width:1"
         inkscape:label="part"
         id="path1339"
         inkscape:connector-curvature="0" />
      <path
         d="m 430.4,58.6 v 6.055561 h -3.3 v 6.048061 h 3.3 v 6.058062 h -3.3 v 6.048061 h 3.3 v 6.058061 h -3.3 v 6.048061 h 3.3 v 6.058063 h -3.3 v 6.04806 h 3.3 v 6.05806 h -3.3 v 6.04806 h 3.3 v 6.05806 h -3.3 v 6.04806 h 3.3 v 6.05807 h -3.3 v 6.04806 h 3.3 v 6.05806 h -3.3 v 6.04806 h 3.3 v 6.05806 h -3.3 v 6.04806 h 3.3 v 6.05806 h -3.3 v 6.04806 h 3.3 v 6.05807 h -3.3 v 6.04806 h 3.3 v 6.05806 h -3.3 v 6.04806 h 3.3 v 6.05806 h -3.3 v 6.04806 h 3.3 v 6.05806 h -3.3 v 6.04806 h 3.3 v 6.05807 h -3.3 v 6.04806 h 3.3 v 6.05806 h -3.3 v 6.04806 h 3.3 v 6.05806 h -3.3 v 6.04806 h 3.3 v 6.05806 h -3.3 v 6.04806 h 3.3 v 6.05807 h -3.3 v 6.04806 h 3.3 v 6.05806 h -3.3 v 6.04806 h 3.3 v 6.05806 h -3.3 v 6.04806 h 3.3 v 6.05806 h -3.3 v 6.04806 h 3.3 v 6.05806 h -3.3 v 6.04807 h 3.3 v 6.05806 h -3.3 v 6.04806 h 3.3 V 355.2"
         style="fill:none;stroke:#000000;stroke-width:1"
         inkscape:label="part"
         id="path1341"
         inkscape:connector-curvature="0" />
      <path
         d="m 430.4,355.2 h -6.2665 v -3.3 h -6.259 v 3.3 h -6.269 v -3.3 h -6.259 v 3.3 h -6.269 v -3.3 h -6.259 v 3.3 h -6.269 v -3.3 h -6.259 v 3.3 h -6.269 v -3.3 h -6.259 v 3.3 h -6.269 v -3.3 h -6.259 v 3.3 h -6.269 v -3.3 h -6.259 v 3.3 h -6.269 v -3.3 h -6.259 v 3.3 h -6.269 v -3.3 h -6.259 v 3.3 h -6.269 v -3.3 h -6.259 v 3.3 h -6.269 v -3.3 h -6.259 v 3.3 h -6.269 v -3.3 h -6.259 v 3.3 H 273.8"
         style="fill:none;stroke:#000000;stroke-width:1"
         inkscape:label="part"
         id="path1343"
         inkscape:connector-curvature="0" />
      <path
         d="m 273.8,355.2 v -6.05556 h 3.3 v -6.04806 h -3.3 v -6.05806 h 3.3 v -6.04807 h -3.3 v -6.05806 h 3.3 v -6.04806 h -3.3 v -6.05806 h 3.3 v -6.04806 h -3.3 v -6.05806 h 3.3 v -6.04806 h -3.3 v -6.05806 h 3.3 v -6.04806 h -3.3 v -6.05807 h 3.3 v -6.04806 h -3.3 v -6.05806 h 3.3 v -6.04806 h -3.3 v -6.05806 h 3.3 v -6.04806 h -3.3 v -6.05806 h 3.3 v -6.04806 h -3.3 v -6.05807 h 3.3 v -6.04806 h -3.3 v -6.05806 h 3.3 v -6.04806 h -3.3 v -6.05806 h 3.3 v -6.04806 h -3.3 v -6.05806 h 3.3 v -6.04806 h -3.3 v -6.05807 h 3.3 v -6.04806 h -3.3 v -6.05806 h 3.3 v -6.04806 h -3.3 v -6.05806 h 3.3 v -6.04806 h -3.3 v -6.05806 h 3.3 v -6.04806 h -3.3 v -6.05807 h 3.3 v -6.04806 h -3.3 v -6.05806 h 3.3 v -6.04806 h -3.3 v -6.05806 h 3.3 v -6.04806 h -3.3 v -6.058063 h 3.3 v -6.048061 h -3.3 v -6.058061 h 3.3 v -6.048061 h -3.3 v -6.058062 h 3.3 v -6.048061 h -3.3 V 58.6"
         style="fill:none;stroke:#000000;stroke-width:1"
         inkscape:label="part"
         id="path1345"
         inkscape:connector-curvature="0" />
    </g>
    <g
       id="g1399"
       transform="translate(0.37797619,-22.678571)">
      <path
         d="m 58.6,4.3 h 6.2615 V 1 h 6.269 v 3.3 h 6.259 V 1 h 6.269 v 3.3 h 6.259 V 1 h 6.269 v 3.3 h 6.259 V 1 h 6.269 v 3.3 h 6.259 V 1 h 6.269 v 3.3 h 6.259 V 1 h 6.269 v 3.3 h 6.259 V 1 h 6.269 v 3.3 h 6.259 V 1 h 6.269 v 3.3 h 6.259 V 1 h 6.269 v 3.3 h 6.259 V 1 h 6.269 v 3.3 h 6.259 V 1 h 6.269 v 3.3 h 6.259 V 1 h 6.269 V 4.3 H 215.2"
         style="fill:none;stroke:#000000;stroke-width:1"
         inkscape:label="part"
         id="path1347"
         inkscape:connector-curvature="0" />
      <path
         d="m 215.2,4.3 v 2.9913889 h -3.3 v 6.2838891 h 3.3 v 6.293889 h -3.3 v 6.283889 h 3.3 v 6.293888 h -3.3 v 6.283889 h 3.3 v 6.293889 h -3.3 v 6.283889 h 3.3 V 54.3"
         style="fill:none;stroke:#000000;stroke-width:1"
         inkscape:label="part"
         id="path1349"
         inkscape:connector-curvature="0" />
      <path
         d="m 215.2,54.3 h -6.2615 v 3.3 h -6.269 v -3.3 h -6.259 v 3.3 h -6.269 v -3.3 h -6.259 v 3.3 h -6.269 v -3.3 h -6.259 v 3.3 h -6.269 v -3.3 h -6.259 v 3.3 h -6.269 v -3.3 h -6.259 v 3.3 h -6.269 v -3.3 h -6.259 v 3.3 h -6.269 v -3.3 h -6.259 v 3.3 h -6.269 v -3.3 h -6.259 v 3.3 h -6.269 v -3.3 h -6.259 v 3.3 h -6.269 v -3.3 h -6.259 v 3.3 h -6.269 v -3.3 h -6.259 v 3.3 h -6.269 V 54.3 H 58.6"
         style="fill:none;stroke:#000000;stroke-width:1"
         inkscape:label="part"
         id="path1351"
         inkscape:connector-curvature="0" />
      <path
         d="m 58.6,54.3 v -2.991389 h 3.3 v -6.283889 h -3.3 v -6.293889 h 3.3 v -6.283889 h -3.3 v -6.293888 h 3.3 v -6.283889 h -3.3 v -6.293889 h 3.3 V 7.2913889 H 58.6 V 4.3"
         style="fill:none;stroke:#000000;stroke-width:1"
         inkscape:label="part"
         id="path1353"
         inkscape:connector-curvature="0" />
    </g>
  </g>
  <g
     transform="translate(0,-77)"
     inkscape:label="newlayer"
     inkscape:groupmode="layer"
     id="g1131" />
  <g
     id="g1357"
     inkscape:groupmode="layer"
     inkscape:label="newlayer" />
</svg>
